<?xml version="1.0" encoding="UTF-8" standalone="no"?>
<!-- Created with Inkscape (http://www.inkscape.org/) -->

<svg
   xmlns:dc="http://purl.org/dc/elements/1.1/"
   xmlns:cc="http://creativecommons.org/ns#"
   xmlns:rdf="http://www.w3.org/1999/02/22-rdf-syntax-ns#"
   xmlns:svg="http://www.w3.org/2000/svg"
   xmlns="http://www.w3.org/2000/svg"
   xmlns:sodipodi="http://sodipodi.sourceforge.net/DTD/sodipodi-0.dtd"
   xmlns:inkscape="http://www.inkscape.org/namespaces/inkscape"
   width="297mm"
   height="210mm"
   viewBox="0 0 1052.3622 744.09448"
   id="svg6106"
   version="1.1"
   inkscape:version="0.91 r13725"
   sodipodi:docname="page2.svg">
  <defs
     id="defs6108" />
  <sodipodi:namedview
     id="base"
     pagecolor="#ffffff"
     bordercolor="#666666"
     borderopacity="1.0"
     inkscape:pageopacity="0.0"
     inkscape:pageshadow="2"
     inkscape:zoom="0.35"
     inkscape:cx="-10.708322"
     inkscape:cy="405.71429"
     inkscape:document-units="px"
     inkscape:current-layer="layer1-5"
     showgrid="false"
     inkscape:window-width="1280"
     inkscape:window-height="616"
     inkscape:window-x="-8"
     inkscape:window-y="-8"
     inkscape:window-maximized="1" />
  <metadata
     id="metadata6111">
    <rdf:RDF>
      <cc:Work
         rdf:about="">
        <dc:format>image/svg+xml</dc:format>
        <dc:type
           rdf:resource="http://purl.org/dc/dcmitype/StillImage" />
        <dc:title></dc:title>
      </cc:Work>
    </rdf:RDF>
  </metadata>
  <g
     inkscape:label="Calque 1"
     inkscape:groupmode="layer"
     id="layer1"
     transform="translate(0,-308.26772)">
    <g
       id="layer1-5"
       inkscape:label="Calque 1"
       transform="translate(109.65501,-11.607471)">
      <path
         id="path3408"
         d="m 392.41884,418.48147 c -6.5145,0.10397 -13.35967,2.33687 -19.54898,6.44494 -2.10282,1.39573 -7.35943,5.81809 -11.68124,9.82845 -11.65745,10.81732 -16.46044,14.8277 -23.24959,19.40952 -13.19294,8.90359 -21.81159,15.13518 -30.85999,22.31323 -34.29422,27.2054 -71.82508,52.68856 -93.71556,63.6342 -5.70335,2.85178 -7.77642,4.13406 -7.77642,4.80631 0,1.27376 1.10437,1.16738 6.40675,-0.6176 25.60942,-8.62108 59.92489,-29.84158 100.27339,-62.0072 4.67659,-3.72816 13.62771,-10.34949 19.89098,-14.71444 17.76466,-12.38041 20.90946,-14.85353 31.53404,-24.79856 10.21075,-9.55768 15.20302,-13.33067 20.29441,-15.34035 2.40216,-0.94819 3.93556,-1.15473 8.77587,-1.17709 l 5.86553,-0.0265 13.00442,3.9347 c 24.32269,7.35875 41.81273,11.62147 47.68623,11.62147 11.5432,0 37.03054,3.54929 53.08855,7.39292 16.12772,3.86029 34.90533,11.20874 34.88434,13.65191 -0.007,0.77578 -2.3837,3.72393 -8.56171,10.62036 -2.60812,2.91143 -4.49091,5.37686 -4.18539,5.4787 1.18104,0.39368 6.50973,-2.78445 9.20421,-5.49032 1.55419,-1.56076 3.41441,-4.09605 4.13393,-5.63309 l 1.30824,-2.79413 0.83343,1.61206 c 0.94839,1.83398 0.94079,1.84735 -4.69176,8.03376 -1.59398,1.75073 -2.50451,3.1231 -2.15163,3.24073 1.04947,0.34983 5.29802,-2.63748 6.91146,-4.85943 0.84692,-1.16636 1.67676,-2.13447 1.84282,-2.15164 0.37388,-0.0386 2.63524,5.71434 4.00609,10.19037 2.82395,9.22059 4.10065,16.28152 5.12507,28.35308 2.20706,26.00738 3.38501,34.74532 5.52353,40.98727 0.51928,1.51571 1.59583,4.42049 2.80907,7.65191 l 0,-12.33869 c -0.14313,-0.56457 -0.28703,-1.13185 -0.37853,-1.58051 -0.75656,-3.70972 -1.8932,-15.88553 -2.84228,-30.45324 -0.28326,-4.34789 -0.64819,-9.28103 -0.81185,-10.96238 -0.16312,-1.68135 -0.166,-2.92528 -0.005,-2.76424 0.16103,0.16103 1.7798,6.81792 3.59601,14.79413 0.17426,0.76527 0.28191,1.19606 0.44163,1.89098 l 0,-4.59878 2.1317,0 c -6.59255,-30.89814 -13.74878,-60.9795 -16.31157,-68.4206 -1.09628,-3.18304 -1.71941,-4.08641 -4.98893,-7.24018 -4.13499,-3.98859 -8.46073,-6.44502 -13.02103,-7.39291 -4.14897,-0.86239 -31.96913,-0.3375 -40.40287,0.76204 -9.13842,1.19139 -17.80378,2.70696 -23.97179,4.19203 -7.36573,1.77344 -14.53158,1.45077 -25.03099,-1.12396 -9.50933,-2.33194 -24.68685,-6.61797 -37.04095,-10.46099 -5.38778,-1.67598 -11.64153,-3.30851 -13.89762,-3.62756 -1.45595,-0.20589 -2.94271,-0.29461 -4.44605,-0.27061 z m 129.92143,14.6912 c 1.48546,-0.002 3.00285,0.01 4.55728,0.0332 l 11.47537,0.171 3.05977,1.66021 c 1.68305,0.91351 4.08927,2.54863 5.34753,3.63254 l 2.28778,1.97067 -3.05313,3.41339 c -6.28767,7.02979 -6.48835,7.57344 -1.75484,4.7482 1.74588,-1.04205 3.39811,-2.58033 4.43441,-4.12894 1.58952,-2.37529 1.66861,-2.42304 2.10516,-1.27172 1.58354,4.17624 2.73492,8.1787 7.28002,25.30824 0.73014,2.75177 0.34628,3.26476 -0.5512,0.73714 -1.04642,-2.94715 -4.57135,-8.75305 -6.74709,-11.11345 -5.88651,-6.38611 -31.73614,-15.15562 -57.772,-19.59878 -5.03387,-0.85906 -9.22968,-1.6392 -9.32374,-1.73326 -0.20488,-0.20488 1.57119,-0.51898 10.31488,-1.82458 9.10149,-1.35901 17.94149,-1.99128 28.3398,-2.00387 z m -60.52131,54.14611 c -0.10497,0.10495 -0.55482,2.10877 -0.99945,4.45268 -0.98245,5.17903 -2.99105,11.67819 -4.58052,14.82403 -1.55456,3.07673 -4.69586,5.84319 -8.84229,7.78472 -4.57804,2.14365 -10.62295,2.47007 -16.72495,0.90315 -2.29215,-0.58859 -4.48802,-1.19294 -4.87936,-1.34311 -0.57472,-0.22054 -0.66901,0.32125 -0.4881,2.82236 0.31265,4.32236 -0.80366,6.97744 -4.27007,10.14555 -3.25002,2.97033 -7.03305,4.93638 -10.89263,5.66298 -1.52141,0.2864 -2.89812,0.65364 -3.05977,0.81682 -0.16165,0.16316 -0.28226,4.35134 -0.2673,9.30548 0.0222,7.33684 0.20962,9.62184 1.00775,12.32208 1.14001,3.85694 1.25814,9.17995 0.33038,14.85058 -1.40649,8.59673 1.19933,11.53078 12.15109,13.68677 10.86353,2.13862 36.3864,3.61712 46.08079,2.66963 16.32429,-1.59549 24.75612,-1.28657 38.53017,1.40786 14.65525,2.86681 27.21761,6.78006 43.50581,13.55561 5.03796,2.09567 9.33301,3.81185 9.54621,3.81185 0.74489,0 8.75526,5.03269 10.63033,6.67902 7.35602,6.45867 10.43598,14.83768 8.6497,23.53514 -1.94799,9.48479 -7.79045,16.62625 -16.22524,19.83122 -3.41683,1.29829 -9.0662,1.99628 -11.58163,1.4311 -5.6743,-1.27493 -25.32105,-3.05444 -42.4798,-3.84837 -6.41435,-0.29678 -7.76234,-0.2205 -9.77864,0.54953 -2.33851,0.89309 -2.34092,0.89237 -7.09575,-0.67903 -9.04099,-2.98791 -23.24686,-4.47845 -34.52241,-3.62257 -10.6512,0.8085 -15.54124,2.34663 -23.45877,7.38295 -2.86397,1.82176 -6.2895,3.8562 -7.61207,4.52075 -4.57875,2.30069 -14.82448,5.91167 -23.13171,8.15164 -4.58913,1.23742 -13.50647,4.08022 -19.81793,6.3171 -23.12286,8.19511 -46.79668,15.94412 -51.76702,16.94576 -8.6739,1.748 -18.16257,2.3424 -26.44716,1.6569 -10.2967,-0.852 -16.39787,-2.49135 -25.06419,-6.7388 -7.86517,-3.85479 -12.8364,-5.55989 -21.06475,-7.22357 -4.99703,-1.01035 -5.9156,-1.05326 -10.90426,-0.50305 -15.05242,1.66019 -28.4406,7.54841 -40.63532,17.87051 -1.50214,1.27147 -2.94713,2.87918 -3.21084,3.57277 -0.60917,1.60226 0.25254,3.81299 1.77144,4.54732 1.99706,0.96549 2.75152,0.64973 6.80189,-2.84228 10.73383,-9.25412 22.85488,-14.80423 35.84726,-16.4145 7.41664,-0.91921 17.70819,1.45258 28.58882,6.58937 11.76323,5.55347 18.09038,6.84926 33.40676,6.84671 11.41834,-0.002 16.50293,-0.59651 25.54233,-2.98838 4.59387,-1.21556 28.40145,-9.62153 50.96017,-17.99336 6.45171,-2.39431 13.7896,-4.9044 16.30658,-5.5783 6.38876,-1.71054 12.53589,-3.81655 18.171,-6.22414 6.15839,-2.63115 8.51813,-3.89568 14.87051,-7.97564 8.48619,-5.45048 15.46589,-7.10907 29.70449,-7.05424 9.96486,0.0383 18.86556,1.13401 24.35861,2.99834 4.15865,1.41143 7.26917,1.59094 9.73381,0.56115 0.94338,-0.39417 2.77125,-0.61625 4.19037,-0.50968 1.38468,0.10397 7.33787,0.54136 13.22856,0.97122 15.03624,1.09723 25.88579,2.19532 30.27227,3.06475 13.48424,2.67267 25.50558,-2.98253 31.4145,-14.77754 2.68703,-5.36365 3.5065,-9.25878 3.22745,-15.33204 -0.19205,-4.17989 -0.50896,-5.75369 -1.75318,-8.69784 l -1.5191,-3.59436 3.08634,-0.90979 c 4.06614,-1.19835 7.8214,-4.8448 9.41007,-9.13946 l 1.09407,-2.9585 -2.04371,-4.27836 c -1.12334,-2.35361 -2.04206,-4.48707 -2.04206,-4.7399 0,-0.25281 0.93216,-0.73814 2.07028,-1.07914 2.90879,-0.87149 5.85639,-3.98855 6.81019,-7.20033 l 0.77697,-2.61483 -5.08356,-12.69397 c -1.68517,-4.20756 -3.11302,-7.82329 -4.03929,-10.21029 l 0,4.28832 -0.88323,0 c 0.32633,0.81214 0.64571,1.58978 0.87161,2.11345 5.50805,12.76772 7.09078,17.11795 6.64748,18.28389 -0.63712,1.67577 -3.38366,2.63138 -4.83288,1.6818 -1.77145,-1.16071 -3.43333,-6.5892 -3.77033,-12.31544 -0.25991,-4.41645 -0.34818,-4.79149 -0.6591,-2.8041 -0.66823,4.27118 1.50735,14.7236 3.31544,15.92972 0.8216,0.54807 3.28306,0.47129 4.42114,-0.1378 2.48365,-1.32921 -0.14733,2.80246 -2.75928,4.33315 -1.21523,0.71218 -2.48473,1.29497 -2.82069,1.29497 -0.66716,0 -1.59652,-2.04863 -5.42889,-12.20421 l 0,6.36359 -0.68235,0 c 0.0559,0.13087 0.10211,0.22517 0.15938,0.36192 1.08587,2.5927 3.21633,7.26038 4.73492,10.373 2.74724,5.63082 2.75864,5.66832 1.98396,7.52241 -0.77781,1.86156 -1.14842,2.012 -3.70891,1.51079 -1.36223,-0.26665 -3.92337,-5.77102 -5.399,-11.60154 -0.60508,-2.39071 -0.86357,-5.62365 -0.79193,-8.16658 l -0.601,0 c -0.27134,4.10036 0.4645,10.05709 1.96736,14.52352 2.16981,6.44864 2.11609,6.37946 4.91588,6.27228 2.30419,-0.0882 2.33564,-0.067 1.62202,1.02102 -1.22316,1.86479 -4.56401,3.88466 -7.24017,4.37798 l -2.54013,0.46818 -3.85833,-3.65413 c -3.80152,-3.59942 -8.50089,-6.68626 -13.50248,-8.8705 -1.40255,-0.6125 -5.41893,-2.33445 -8.92529,-3.82679 -7.4446,-3.16848 -7.51609,-3.2096 -9.25568,-5.32927 -1.17396,-1.43046 -3.79347,-7.0702 -4.73492,-10.1937 -0.31642,-1.04977 -0.24424,-1.07853 1.41449,-0.56945 2.12961,0.6536 4.60682,0.23667 6.89486,-1.15882 2.35158,-1.43424 1.73542,-1.7413 -1.0011,-0.49973 -2.22102,1.0077 -4.83097,1.28884 -6.86664,0.74212 -1.20493,-0.32361 -5.68101,-6.76094 -7.5938,-10.92252 -0.70912,-1.5428 -1.29076,-3.66008 -1.29331,-4.70504 -0.005,-1.82931 0.0437,-1.88179 1.30328,-1.40288 3.9427,1.49902 9.68373,-0.24854 12.46153,-3.79358 0.60269,-0.76916 0.32373,-0.69932 -1.31654,0.3337 -2.74489,1.7287 -5.38429,2.42051 -9.24903,2.42391 -2.81669,0.003 -3.36905,-0.17162 -4.96237,-1.57056 -0.9862,-0.8659 -2.80276,-3.10493 -4.03763,-4.97399 -7.54667,-11.42239 -9.77906,-21.71598 -7.71501,-35.57499 1.23542,-8.29516 3.8282,-15.16505 8.02214,-21.24737 1.66618,-2.41641 0.39177,-1.5507 -4.15053,2.81738 -8.32484,8.00554 -16.05855,12.02058 -24.0498,12.48644 -5.24343,0.30567 -8.4301,-0.49277 -13.17211,-3.30216 -9.35281,-5.54102 -16.00896,-13.52441 -17.89375,-21.4632 -0.35323,-1.48781 -0.72847,-2.62018 -0.83342,-2.51522 z m -1.47926,16.22358 2.51357,2.8539 2.51356,2.85224 -1.23852,2.35086 c -2.20186,4.18122 -32.40616,49.2436 -33.79358,50.41727 -2.97198,2.5141 -6.98851,4.82597 -9.5844,5.51688 -1.50847,0.40148 -3.98064,0.73373 -5.49363,0.73713 l -2.75097,0.005 0.33369,-3.99945 c 0.28547,-3.42297 0.15758,-4.54223 -0.89485,-7.77642 -1.36824,-4.20472 -2.14584,-9.00787 -2.63973,-16.31489 l -0.33038,-4.88434 3.24238,-1.16547 c 8.11321,-2.91739 14.86821,-7.83835 16.1688,-11.77919 l 0.58273,-1.76646 5.22967,-0.01 c 6.45604,-0.0116 10.48295,-1.25068 15.95296,-4.90924 4.40267,-2.94469 7.60405,-6.36077 9.11123,-9.72386 l 1.07747,-2.40398 z m 5.88379,6.06308 2.66796,1.98064 c 7.94436,5.89854 14.20854,8.37445 21.2839,8.41228 7.42931,0.0397 13.95464,-2.36626 21.11123,-7.78307 1.85378,-1.40311 3.37023,-2.48925 3.37024,-2.41394 0,0.0753 -0.67364,1.98062 -1.49586,4.23354 -3.02231,8.28134 -3.76797,16.07369 -2.32927,24.32374 1.43635,8.23671 4.80494,15.74844 10.18372,22.71002 1.5518,2.00842 2.8207,3.9887 2.8207,4.39955 0,2.24562 3.57227,8.7467 7.20034,13.10571 1.21069,1.4546 2.70091,4.25487 3.80022,7.14056 0.99466,2.61099 2.14533,5.26426 2.55672,5.89541 0.96498,1.48048 0.42899,1.45353 -3.8052,-0.18263 -5.50632,-2.12775 -18.38334,-5.67288 -25.85279,-7.11898 -5.06488,-0.98058 -7.34877,-1.65082 -7.95574,-2.33425 -0.46824,-0.52724 -1.38229,-3.07969 -2.03209,-5.67128 -1.0614,-4.2332 -1.18191,-5.89248 -1.18871,-16.33647 -0.007,-11.21141 -0.0439,-11.63397 -1.02767,-11.83896 -0.56103,-0.11692 -2.39775,-0.47455 -4.0808,-0.79525 -10.15283,-1.93454 -25.0003,-9.05497 -34.87272,-16.72329 l -1.21361,-0.94135 2.63973,-4.46761 c 1.45129,-2.45709 3.89415,-6.97084 5.42889,-10.031 l 2.79081,-5.56337 z m -11.13337,20.48202 4.40952,3.58274 c 9.515,7.73055 20.18877,13.90482 28.69674,16.6021 l 4.39457,1.39291 0.33038,4.86276 c 0.62339,9.14879 2.63718,18.10323 5.65136,25.13559 0.42984,1.00284 0.4886,0.99865 -4.06253,0.29551 -1.68306,-0.26005 -8.35204,-0.40423 -14.8207,-0.32042 l -11.76093,0.15275 -0.5927,-4.95573 c -0.32586,-2.72524 -0.94333,-5.79245 -1.37133,-6.81683 -0.65687,-1.5721 -0.95633,-1.81054 -1.92584,-1.52739 -4.40887,1.28763 -6.87388,1.43876 -10.71334,0.65578 -5.39479,-1.10014 -12.67247,-4.47539 -17.20145,-7.97897 l -1.26507,-0.97953 1.63198,-2.20476 c 2.53446,-3.42144 14.5289,-21.21513 16.67681,-24.74045 l 1.92253,-3.15606 z m -20.73437,30.55285 1.26176,1.14555 c 9.14068,8.29777 17.53591,12.61096 24.55119,12.61096 l 2.42059,0 2.12175,3.63087 c 1.68276,2.88128 1.97655,3.72273 1.42446,4.0725 -0.63598,0.40293 -13.9824,0.48356 -20.07693,0.1212 -13.02234,-0.77425 -24.63292,-2.23323 -30.02822,-3.77366 -3.81549,-1.08937 -5.00991,-3.4148 -4.0974,-7.97731 l 0.3005,-1.50249 4.9275,0.0349 c 4.34333,0.0312 5.2805,-0.12995 7.90427,-1.35805 3.18514,-1.49085 6.57752,-3.88001 8.25622,-5.81406 l 1.03431,-1.19037 z m 67.10903,35.57001 c -0.057,0.0328 -0.0195,0.37909 0.15606,1.13725 0.16241,0.70127 0.56887,4.19993 0.90316,7.77642 1.15926,12.40283 -0.76879,24.66436 -6.55617,41.69453 -0.46617,1.37175 0.73926,-0.49089 2.41726,-3.73714 2.28006,-4.41098 4.89739,-12.67305 5.8456,-18.44992 1.1186,-6.81498 0.76108,-17.19769 -0.7886,-22.93082 -0.7755,-2.86901 -1.80606,-5.5888 -1.97731,-5.49032 z m 5.99004,8.61981 c -0.21681,-0.0541 -0.18696,1.53846 -0.0415,6.0963 0.15989,5.00982 -0.0117,8.63545 -0.57776,12.20255 -0.70024,4.41309 -2.53228,11.68956 -3.70558,14.72108 -0.24658,0.63723 -0.18909,0.85929 0.16436,0.64084 0.94633,-0.58487 4.1302,-9.22015 5.02213,-13.62203 1.01724,-5.02029 0.791,-15.80236 -0.40011,-19.06751 -0.2122,-0.58169 -0.36298,-0.94663 -0.46153,-0.97123 z m -10.27837,0.41174 c -0.16478,0.0752 -0.11547,1.66054 0.0349,5.73104 0.30827,8.34645 -0.57953,14.33883 -3.68733,24.87992 -0.1654,0.56102 0.49075,-0.58652 1.45766,-2.55008 2.81671,-5.72004 3.61572,-9.66963 3.56115,-17.59492 -0.032,-4.65378 -0.29541,-7.62969 -0.8135,-9.18096 -0.2777,-0.83148 -0.45398,-1.33015 -0.55285,-1.285 z m 51.65081,2.59159 c -6.38883,-0.0291 -7.08975,0.0652 -9.71887,1.29828 l -2.83232,1.32817 -0.63752,6.32208 c -1.21723,12.07825 -4.10722,23.86241 -7.53901,30.74045 -0.96284,1.92973 -1.6397,3.61819 -1.50415,3.75374 0.13555,0.13556 4.44661,0.68763 9.58107,1.22523 5.13446,0.5376 11.05667,1.28341 13.16048,1.65856 4.60812,0.82173 5.10017,0.88018 5.10017,0.60431 0,-0.3933 -22.75414,-4.87265 -24.82015,-4.88599 -0.0462,-3.1e-4 0.80159,-2.16608 1.88269,-4.81295 3.00567,-7.3588 5.57277,-18.56728 6.86331,-29.96017 0.18048,-1.5933 0.61394,-3.13372 0.96292,-3.42335 1.15928,-0.96211 6.60932,-2.09494 9.99115,-2.07692 4.58207,0.0244 10.77653,1.19742 13.67348,2.58992 3.2813,1.57727 7.354,5.86182 9.26066,9.74046 5.4828,11.15343 1.41421,22.77731 -10.46928,29.90703 -4.10594,2.46342 -3.94925,2.87442 0.19258,0.5047 4.61913,-2.64279 9.54829,-7.67176 11.60487,-11.84228 4.06935,-8.25223 2.35191,-18.13099 -4.44438,-25.56723 -4.96445,-5.43189 -9.60508,-7.05525 -20.3077,-7.10404 z"
         style="fill:#000000;fill-opacity:1"
         inkscape:connector-curvature="0" />
      <path
         sodipodi:nodetypes="sscscssccsssssssssccssssssccccscsssssssccccssscscccsscccsscsccssssccsssccsccccscccccccccscsscsccsccscccccccsccsssssccsccccccscsccccscsccssssscsccccccsssccscccccsccccccccccccssccccssccsssscssssccscssccsscssccccccccscccsccssssssscccscscsscc"
         inkscape:connector-curvature="0"
         id="path3421"
         d="m 579.98775,508.5894 c -5.04414,0.0372 -7.41057,0.44174 -9.90482,1.69175 -2.32394,1.16465 -3.99861,2.7182 -4.93248,4.57554 -0.60761,1.2085 -1.31705,3.34703 -1.65191,4.97731 -0.28871,1.40559 -0.56442,4.27269 -0.47481,4.94079 0.1643,1.22494 1.5555,3.58355 3.78693,6.41671 1.58925,2.0178 2.9352,3.35893 4.62369,4.60875 0.77244,0.57175 1.40534,1.14406 1.40619,1.27171 8.5e-4,0.12767 -0.0982,0.51277 -0.2208,0.85667 -0.12255,0.34391 -0.57602,1.91124 -1.00775,3.48313 -0.87026,3.16861 -2.80519,9.58731 -3.98616,13.21859 -0.42174,1.29681 -1.05887,3.35757 -1.4145,4.57886 -0.35563,1.2213 -0.80788,2.65103 -1.00609,3.17764 -0.66224,1.75941 -1.66339,5.13929 -2.65302,8.96182 -0.5392,2.08276 -1.49225,5.39485 -2.11843,7.35971 -0.62617,1.96487 -1.37467,4.4409 -1.66353,5.50194 -0.28884,1.06102 -1.0618,3.72962 -1.71665,5.93027 -0.65486,2.20065 -1.39381,4.70879 -1.64195,5.57333 -0.22222,0.77418 -0.70726,2.36819 -1.11899,3.73381 l 3.02538,2.73224 c 0.0678,-0.22219 0.74538,-3.17017 0.81303,-3.393 2.07648,-6.83921 3.76096,-12.49066 4.19535,-14.07527 0.28009,-1.02173 0.99629,-3.33732 1.59215,-5.14499 0.59585,-1.80768 1.55651,-5.08767 2.13503,-7.28832 0.57852,-2.20065 1.53323,-5.48066 2.12174,-7.28833 0.5885,-1.80768 1.36819,-4.37832 1.73327,-5.71444 0.36506,-1.3361 0.84839,-3.04029 1.07415,-3.78694 0.22578,-0.74665 0.48202,-1.63236 0.56945,-1.96735 l 0.15938,-0.60929 0.5844,0.68068 c 1.3728,1.59837 3.19872,2.80156 4.9358,3.25401 1.1902,0.31001 1.7393,0.26257 0.80521,-0.0697 -1.61705,-0.57524 -3.52924,-2.14105 -4.77643,-3.9098 -1.05848,-1.5011 -1.09084,-1.68257 -0.61096,-3.53126 0.22328,-0.86019 0.44613,-1.56392 0.49475,-1.56392 0.0486,0 0.26644,0.25511 0.48312,0.56779 0.69722,1.00608 2.70887,2.81662 3.6674,3.30049 1.9681,0.99349 4.04749,1.59767 2.42889,0.7056 -1.61823,-0.89187 -2.17048,-1.31689 -3.36027,-2.58163 -1.13763,-1.20931 -1.59949,-1.81821 -2.3658,-3.11788 l -0.44825,-0.75871 0.80519,-3.66741 c 0.44285,-2.01652 0.82586,-3.70059 0.8517,-3.74377 0.0258,-0.0432 0.94079,0.351 2.03209,0.87659 2.50866,1.20825 4.77734,2.11344 6.96459,2.77753 1.50741,0.45768 2.09584,0.55293 4.85943,0.78528 1.72904,0.14538 3.15216,0.26884 3.1627,0.27394 0.0105,0.005 -0.29414,0.82912 -0.6757,1.8312 -0.38155,1.00209 -1.21587,3.42917 -1.85446,5.39403 -0.6385,1.96487 -1.25569,3.64766 -1.37133,3.7388 -0.3588,0.28267 -1.75744,0.35854 -3.60598,0.19756 -0.97472,-0.0849 -1.79703,-0.12881 -1.82789,-0.0979 -0.0309,0.0308 0.47699,0.20677 1.12894,0.39015 0.89079,0.25056 1.56015,0.33443 2.69453,0.33868 l 1.50913,0.005 -0.31545,0.99613 c -0.37198,1.17321 -0.35299,1.16337 -2.61815,1.29164 -1.02981,0.0583 -1.90269,0.0206 -2.72938,-0.11954 -0.66805,-0.11325 -1.23251,-0.18939 -1.25513,-0.16933 -0.0225,0.0201 0.41944,0.20683 0.98119,0.41505 1.17908,0.43704 2.47765,0.65238 3.96458,0.65578 0.92866,0.003 1.03723,0.0303 0.96957,0.25235 -0.0417,0.13755 -0.39538,1.31138 -0.78528,2.6082 -0.38991,1.29681 -1.99161,6.2489 -3.55949,11.00387 -2.6714,8.10146 -4.90805,15.29564 -6.19756,19.93414 -2.29217,8.24507 -3.4556,12.23071 -4.54899,15.5761 -0.22418,0.68595 -0.47347,1.4784 -0.71721,2.24958 l 2.52186,5.25789 c 0.59107,-1.92871 1.58085,-5.08218 2.19978,-7.00775 0.61893,-1.92557 1.77792,-5.8474 2.57499,-8.71611 1.72454,-6.20669 2.1831,-7.80047 3.60431,-12.5047 0.59361,-1.96486 1.22025,-4.08624 1.39126,-4.715 0.67119,-2.46676 2.35893,-8.00583 4.28832,-14.07526 2.08186,-6.54933 3.03006,-9.68021 4.6569,-15.36193 0.51758,-1.80768 1.33741,-4.65978 1.82125,-6.33868 l 0.87991,-3.05313 1.42944,0.093 c 2.82449,0.18298 7.35312,-0.47697 9.00166,-1.31157 1.11558,-0.5648 2.262,-1.48654 2.77256,-2.22967 0.55396,-0.80632 2.42704,-4.47594 3.00166,-5.88046 0.25729,-0.62877 0.70117,-1.62344 0.98781,-2.2114 0.4748,-0.97398 0.52689,-1.19846 0.5761,-2.51854 0.0643,-1.73483 -0.16502,-2.68667 -0.9762,-4.05756 -1.16233,-1.96405 -3.95063,-4.77896 -6.37853,-6.43995 -0.38367,-0.26246 -1.39163,-1.00833 -2.23962,-1.65689 -3.315,-2.35865 -7.88462,-4.51324 -9.89818,-5.46209 -2.45822,-1.15032 -5.98833,-2.21271 -8.92197,-2.68456 -1.13166,-0.18193 -2.29175,-0.23534 -4.71666,-0.21749 z m -3.12618,3.97952 c 0.88178,-0.009 1.92418,0.0125 3.19757,0.0548 3.34913,0.1112 3.70666,0.14931 5.7161,0.61594 2.30111,0.53434 5.06895,1.44942 6.39016,2.11179 0.44895,0.22508 1.31702,0.60689 1.92916,0.85002 1.14536,0.45501 4.0127,1.88381 4.89928,2.44051 l 0.49972,0.31378 -1.6436,0.32374 c -1.5532,0.30586 -6.34813,1.75538 -6.22247,1.88102 0.19034,0.19031 6.45145,-1.07585 7.91422,-1.60044 0.61566,-0.22078 0.62429,-0.21978 1.25014,0.21085 0.34675,0.23854 0.63088,0.47899 0.63088,0.53458 0,0.0556 -1.34805,0.51536 -2.99668,1.02103 -1.64872,0.50566 -2.97348,0.94454 -2.94356,0.97455 0.089,0.089 3.15219,-0.3648 5.1699,-0.76536 l 1.87438,-0.37189 0.77033,0.54621 c 1.34186,0.95108 3.53827,2.91696 4.34312,3.88655 0.99818,1.20254 1.25439,1.75131 1.32817,2.83897 0.074,1.09669 -0.19933,1.54261 -1.43442,2.34089 -1.09827,0.70983 -2.23865,0.95281 -5.3243,1.13226 l -0.002,-0.002 c -2.29179,0.13329 -7.723,0.16736 -8.50193,0.0531 -0.19649,-0.0288 -1.193,-0.15528 -2.21472,-0.28058 -2.26886,-0.27826 -6.43582,-1.31012 -7.91423,-1.96071 -2.87,-1.26297 -6.00809,-2.72627 -5.95683,-2.77753 0.0314,-0.0315 0.88228,-0.21644 1.89098,-0.41173 1.66337,-0.32202 10.40373,-3.0894 11.04372,-3.4964 0.1795,-0.1139 0.16828,-0.12689 -0.0631,-0.0681 -0.15722,0.0399 -1.09116,0.2064 -2.0736,0.37023 -2.80665,0.46803 -3.96069,0.77614 -7.88268,2.10016 l -3.66741,1.23852 -1.11898,-0.74212 c -0.61568,-0.40818 -1.3453,-0.93278 -1.62037,-1.16546 l -0.49972,-0.42336 0.57111,-0.005 c 0.83734,-0.007 3.14559,-0.39992 4.21528,-0.71887 1.18147,-0.35226 7.01026,-2.61031 6.93469,-2.68622 -0.12276,-0.12274 -3.68431,0.71682 -5.64803,1.33149 -1.13962,0.35671 -3.05639,0.90912 -4.2601,1.2269 l -2.18982,0.57775 -0.81184,-0.66575 c -1.79495,-1.47188 -3.51751,-3.16728 -4.19369,-4.12728 -0.85587,-1.21519 -0.85458,-1.48211 0.0166,-2.94853 0.73364,-1.2349 1.46877,-1.86348 3.07969,-2.63475 1.67226,-0.80075 2.87322,-1.09722 5.51853,-1.12397 z m -11.44881,8.31268 0.83177,1.11897 c 0.45792,0.61592 1.18049,1.49905 1.60542,1.96238 1.32524,1.44497 6.09253,4.89003 7.98894,5.77254 0.58702,0.27319 1.9039,1.00929 2.92528,1.63531 1.02138,0.62603 2.34527,1.38431 2.94356,1.68511 1.06405,0.535 3.9339,1.56891 4.35473,1.56891 0.27402,0 0.2694,0.0771 -0.073,1.07249 -0.15719,0.45747 -0.26457,0.85275 -0.23907,0.87825 0.0255,0.0255 0.23307,-0.34545 0.46154,-0.82346 0.40661,-0.85066 0.42497,-0.86736 0.89984,-0.79026 0.26689,0.0433 0.52065,0.11389 0.56281,0.15605 0.0422,0.0422 -0.003,0.33989 -0.0996,0.66243 -0.22329,0.74518 -0.10102,0.90726 0.13282,0.17598 0.0959,-0.29999 0.21791,-0.59432 0.27061,-0.65246 0.0525,-0.0581 0.54207,-0.0124 1.0891,0.10127 0.54703,0.11372 2.02465,0.34647 3.28224,0.51633 2.10469,0.28428 2.66541,0.30177 7.06419,0.21915 4.77391,-0.0897 7.06935,-0.29172 8.35251,-0.73381 0.31653,-0.10906 0.59018,-0.18567 0.60599,-0.16935 0.0163,0.0163 -0.37226,0.64175 -0.86332,1.3896 -1.37032,2.08692 -2.2092,2.67158 -4.59546,3.19756 -2.57217,0.56691 -2.68523,0.57839 -2.59823,0.2756 0.041,-0.1431 0.24446,-0.83504 0.45158,-1.53735 0.54193,-1.83748 0.37411,-1.83829 -0.26896,-0.002 -0.30141,0.86099 -0.64619,1.64498 -0.76701,1.74322 -0.12083,0.0982 -0.49859,0.1793 -0.83841,0.1793 l -0.6176,0 0.41506,-0.8218 c 0.41212,-0.81709 1.06903,-2.74782 0.96956,-2.84726 -0.0589,-0.0589 -1.06356,2.11059 -1.44107,3.11123 l -0.24736,0.65745 -1.94079,0.093 c -1.06733,0.0512 -2.29979,0.0825 -2.73935,0.0697 -3.00515,-0.0878 -5.28326,-0.26967 -6.51467,-0.51964 -2.14441,-0.43529 -5.25995,-1.82957 -8.75262,-3.91644 l -1.1771,-0.70393 0.20089,-0.39015 c 0.23522,-0.45485 0.69775,-2.16777 0.6093,-2.25623 -0.0331,-0.0331 -0.26771,0.51901 -0.52296,1.2269 -0.49077,1.36106 -0.4957,1.36505 -1.18042,0.84173 -0.23197,-0.17729 -0.21907,-0.26862 0.18927,-1.44771 0.23955,-0.69169 0.41327,-1.32191 0.38683,-1.40122 -0.0264,-0.0793 -0.29771,0.43852 -0.60266,1.15053 -0.30497,0.71201 -0.59366,1.29335 -0.64084,1.29165 -0.0472,-8.5e-4 -0.76026,-0.50714 -1.5855,-1.12397 -1.81781,-1.35871 -4.37414,-3.91435 -6.23243,-6.23243 -1.89466,-2.36344 -2.05198,-2.73111 -2.05368,-4.7648 z m 6.57277,69.52297 c 0,0.12837 2.12925,1.36988 2.97013,1.7316 0.91796,0.39488 1.00252,0.41842 0.81018,0.2291 -0.19,-0.187 -3.78031,-2.04916 -3.78031,-1.9607 z m -1.18704,3.17266 c -0.0272,0.0155 0.0655,0.13143 0.25899,0.34034 0.5782,0.62428 1.69667,1.43725 2.1782,1.58218 0.75397,0.22692 0.96135,0.13459 0.33536,-0.14942 -0.34627,-0.1571 -1.05396,-0.59544 -1.57222,-0.97455 -0.77997,-0.57053 -1.155,-0.82439 -1.20033,-0.79855 z m -31.94079,64.25844 c 0.0225,0.50103 0.0739,1.05612 0.18429,1.79137 0.11489,0.76578 0.30565,2.2273 0.42334,3.24903 0.33354,2.89553 1.7442,11.69025 2.72607,16.99557 0.27531,1.48763 0.49972,2.88858 0.49972,3.1129 0,0.94602 0.67856,1.83804 1.6652,2.18981 0.68339,0.2437 0.77397,0.24666 1.56889,0.0465 0.88456,-0.22272 1.96211,-1.24475 2.7958,-2.6497 0.36898,-0.62182 1.37328,-2.60688 2.23132,-4.41117 0.85804,-1.80433 2.05537,-4.14872 2.66132,-5.20975 0.60596,-1.06102 1.82725,-3.40704 2.71444,-5.21471 0.88718,-1.80768 1.80745,-3.59242 2.04372,-3.96458 0.28242,-0.44486 0.98181,-2.39431 2.18982,-5.93526 l -4.45601,0 -0.12119,0.28888 0,0.002 c -0.35323,0.84489 -0.675,1.53245 -0.71555,1.52905 -0.0405,-0.003 -0.26727,-0.15968 -0.50305,-0.34698 -0.32313,-0.25668 -1.29077,-0.8782 -2.26452,-1.47261 z m 7.3016,1.03764 c 1.43895,0.0174 2.87843,0.076 2.96016,0.15771 0.11211,0.11209 0.0774,0.51155 -0.12617,1.42945 -0.29042,1.30935 -0.89614,5.36784 -0.81351,5.45046 0.077,0.077 0.90789,-3.23282 1.15716,-4.60708 0.12831,-0.70735 0.2634,-1.43084 0.29885,-1.60875 0.0635,-0.31901 0.0796,-0.31532 1.16879,0.27228 1.30869,0.70605 3.14255,1.77689 3.50636,2.04704 0.24461,0.18163 0.2275,0.25326 -0.31212,1.32651 -0.31376,0.62403 -0.86288,1.78481 -1.22026,2.57996 -0.35737,0.79516 -0.98197,2.04248 -1.38793,2.77256 -0.40597,0.73007 -1.63551,3.07965 -2.73105,5.22136 -1.09551,2.1417 -2.01763,3.89485 -2.05036,3.89485 -0.0928,0 -0.086,-0.0437 0.45656,-3.14444 0.34195,-1.9544 0.52966,-3.52328 0.56613,-4.71499 l 0.0548,-1.78638 -0.2673,1.35804 c -0.14693,0.74664 -0.49812,2.25662 -0.78029,3.35695 -0.43545,1.69806 -0.75384,3.34927 -0.81351,4.21694 -0.0593,0.86298 -1.37265,-6.75682 -1.91256,-11.09353 -0.53734,-4.31612 -0.80364,-6.94954 -0.71056,-7.04262 0.0798,-0.0798 1.51789,-0.10374 2.95683,-0.0863 z"
         style="fill:#000000" />
      <g
         transform="translate(152.66728,68.819496)"
         inkscape:label="Calque 1"
         id="layer1-8" />
      <path
         sodipodi:nodetypes="cscsscsssscsscsccccsccsssscsssscssssscsssssssssssssssssscscsssssscsssssscssssssssccsssscscssscsscsscssscsccsssssccsssssssssscssscsssscsssccsssssssssssssssssssssscssscsssscsscsssssssscssssssssssssssssssssssssssssssssssssssscssccsssssssssssssssssssssssssssssssssssssssssccsccssssscsssssssccsccssssssssssssscsscscssscsssssssssssscsscssssccsccccsccssscssssssssssssssccccccssssssssccssssscsscssssssssssssssssscsssssccsccssscssssssssssssssssssssscsscsscssssssssssscccsscsssssssccssssscsscssccscsscscccscssccssssssccscsssssssssssscssccsccccssssssscccssssssssssssssscsccsccsssssssscsssssssssscsccccssccsssscsssscsssssscsssssscsssssscssssssscscccssssssscscsscccsccssssssscssssssssssccsccsssssssssccsccssssssscsssssssscssssssssscssccssssssscssscsssssssssssssssscsscsssssssssscsscccccsscssscsssssssssssscsssssssscssscsssssssccsccsssssccsccsssssssssssssssssssssssssssssssssss"
         inkscape:connector-curvature="0"
         id="path3451"
         d="m 402.47394,994.3001 c -28.1145,-6.203 -248.25591,-55.92637 -295.28888,-66.6969 L 88.79078,923.39085 88.60011,910.51072 C 88.37369,895.22127 86.0354,860.34297 83.75116,838.18381 l -1.6341,-15.85247 90.07858,-21.63981 c 94.37856,-22.67279 258.21973,-62.92582 275.30087,-67.6368 10.89455,-3.00473 8.79957,-3.35097 138.98982,22.97087 43.10001,8.71397 115.42921,23.15512 187.51726,37.43949 l 17.52493,3.4726 2.14828,13.6876 c 1.18154,7.52819 3.26776,30.41216 4.63596,50.85327 l 2.48761,37.16569 -183.21311,51.50917 c -100.76725,28.32998 -183.29304,51.41848 -183.39071,51.30788 -0.0978,-0.1105 -14.37278,-3.3332 -31.72253,-7.1612 z m 28.32853,-3.0408 c -4.11991,-11.7423 -7.4062,-36.81341 -4.7015,-35.86835 1.46324,0.51129 2.47749,-2.46695 2.25385,-6.61823 -0.22603,-4.19897 -1.15468,-5.78946 -2.09269,-3.58466 -0.92738,2.17973 -3.34163,4.85485 -5.36512,5.94467 -2.5341,1.36489 -2.76157,1.07571 -0.73102,-0.92942 4.24376,-4.19038 5.54618,-51.18885 1.45805,-52.61723 -1.85765,-0.64908 -3.56416,1.32463 -3.79223,4.38606 l -0.41473,5.56624 -2.24109,-5.92049 c -1.36421,-3.60403 -4.83046,-6.20239 -8.85916,-6.64103 -5.04602,-0.54941 -6.06538,0.0939 -4.29111,2.70788 6.65707,9.80783 9.72117,21.55627 7.83904,30.05693 -1.15935,5.23609 -2.38611,10.85766 -2.7263,12.49252 -0.33992,1.63477 0.3696,6.98493 1.57698,11.88934 2.05851,8.36117 1.87915,8.23757 -2.87769,-1.98159 -3.58984,-7.71213 -4.05455,-12.22935 -1.58963,-15.45027 4.97903,-6.5062 4.30377,-17.93665 -1.73925,-29.44098 -5.46567,-10.40532 -12.38635,-15.17819 -25.20697,-17.38414 l -7.64719,-1.3158 8.52339,9.98871 c 9.51215,11.14744 10.30404,15.12491 4.63019,23.25466 -4.51314,6.46672 -4.40399,22.88271 0.21276,31.98344 1.75522,3.45987 1.86173,6.29064 0.23699,6.29064 -1.62491,0 -4.27496,-5.53454 -5.88908,-12.29897 -2.57201,-10.77844 -4.01799,-12.4688 -11.69723,-13.67338 -7.92991,-1.24384 -8.04075,-1.39319 -1.16615,-1.57195 11.72409,-0.30491 21.08698,-15.60435 15.73265,-25.70798 -5.78274,-10.91177 -18.80508,-20.9539 -28.15785,-21.71369 -8.71758,-0.70819 -8.7042,-0.30256 0.49217,14.88577 2.73556,4.51786 2.75239,10.12804 0.0595,19.81561 -3.36605,12.10963 -2.97485,14.69422 3.76545,24.8784 5.51592,8.33427 9.39103,11.44461 14.53165,11.66383 6.11442,0.26079 6.00247,0.40861 -0.87621,1.15765 -5.76403,0.62766 -7.88621,2.24365 -7.88621,6.00511 0,8.2412 -2.65243,4.3844 -4.54816,-6.6133 -0.95832,-5.55953 -4.21699,-12.81366 -7.24145,-16.12019 -4.4552,-4.87074 -4.85995,-8.21781 -2.1325,-17.63352 1.85154,-6.39187 3.37558,-11.84457 3.38677,-12.11704 0.0105,-0.27247 -3.52852,-0.61682 -7.86595,-0.76524 l -7.88624,-0.26985 7.88624,-0.85874 c 9.41522,-1.02524 9.25397,0.15674 1.99336,-14.60744 -6.09978,-12.40367 -8.69074,-13.74117 -36.17162,-18.67222 -7.045,-1.26414 -6.45802,-0.47486 4.30757,5.79206 15.25613,8.88097 20.97816,20.41701 17.92458,36.13709 -1.23653,6.3656 -1.86974,13.80304 -1.40722,16.52772 0.46255,2.7246 1.09324,13.42509 1.40155,23.77868 0.30843,10.35369 2.13779,19.47989 4.06554,20.28069 6.61438,2.7473 12.05017,1.5096 17.27264,-3.9328 6.00672,-6.2596 7.08668,-5.0797 2.11589,2.3118 -2.77959,4.1332 -2.18678,5.4121 3.27456,7.0645 3.6677,1.1097 8.09703,2.0177 9.8429,2.0177 3.12343,0 9.64824,-10.1014 12.79946,-19.8156 0.88395,-2.7247 1.01018,-0.9413 0.28043,3.9631 -0.72958,4.9044 -2.34234,10.7994 -3.58398,13.1002 -1.87669,3.4774 0.008,4.6968 11.16775,7.2288 12.88022,2.9222 13.60402,2.8731 17.83486,-1.2107 4.16777,-4.023 4.29111,-3.9576 2.24875,1.1926 -1.7718,4.468 -0.95628,5.4494 4.52801,5.4494 3.67892,0 8.813,-1.1146 11.40907,-2.477 3.77625,-1.9816 4.22549,-1.9816 2.24671,0 -1.36047,1.3624 -1.49877,3.3687 -0.30737,4.4585 4.27386,3.9096 6.01259,1.8661 3.79351,-4.4585 z m -25.00373,-17.0832 c 0.75873,-4.7639 3.31264,-9.6682 5.67529,-10.8985 3.22662,-1.6803 3.68844,-1.6282 1.85553,0.2094 -1.34211,1.3456 -3.89602,6.25 -5.6753,10.8986 l -3.23495,8.4521 z m 52.48615,18.2428 c 6.72992,-1.8144 11.27154,-4.1813 10.09229,-5.26 -1.17916,-1.0786 -0.39084,-1.3487 1.75183,-0.6001 2.14257,0.7487 17.76447,-2.6352 34.71521,-7.5197 16.95075,-4.8845 29.24232,-8.9398 27.31454,-9.0116 -4.3728,-0.163 5.71083,-3.9724 10.51501,-3.9724 1.92778,0 1.13912,0.8644 -1.7525,1.9209 -3.6762,1.3432 -3.90673,1.93 -0.76621,1.9512 2.47018,0.016 5.39563,-1.3021 6.50101,-2.9306 1.10537,-1.6285 3.25645,-2.5253 4.78021,-1.9929 1.52376,0.5323 3.73766,-0.457 4.91971,-2.1986 1.22548,-1.8054 4.3966,-2.679 7.3773,-2.0324 2.87539,0.6239 5.22793,0.3659 5.22793,-0.5731 0,-1.8577 8.01083,-4.00495 19.65281,-5.26809 14.64049,-1.58836 202.94441,-56.58514 205.06481,-59.89197 1.18264,-1.84449 0.39407,-4.02241 -1.7525,-4.8398 -2.85363,-1.08665 -2.85856,-1.88569 -0.0179,-2.97234 2.13663,-0.81739 3.35166,-3.26957 2.7002,-5.44929 -0.65154,-2.17972 -1.33233,-13.14241 -1.51279,-24.36156 -0.32072,-19.94993 -0.49582,-20.37267 -7.95762,-19.22561 -6.66804,1.02506 -6.85658,0.89882 -1.49588,-1.00176 4.18562,-1.48395 6.1338,-4.70323 6.1338,-10.13595 0,-7.27135 -0.68342,-7.86297 -7.8863,-6.82655 l -7.88622,1.13476 7.88622,-2.29481 c 5.79863,-1.68749 7.88579,-4.05014 7.88579,-8.92745 0,-4.36072 -1.67906,-6.63266 -4.90177,-6.63266 -2.69595,0 -22.43155,4.90436 -43.85676,10.89858 -21.42529,5.99422 -39.53504,10.89857 -40.24396,10.89857 -0.70884,0 -38.14857,10.07841 -83.19927,22.39646 -45.05074,12.31804 -87.0365,23.57251 -93.30172,25.00989 -6.26513,1.4374 -11.39122,3.39697 -11.39122,4.35459 0,0.95764 -1.67651,1.74117 -3.72567,1.74117 -2.04908,0 -11.90685,2.12281 -21.90615,4.7174 -9.99939,2.59457 -22.72184,5.74889 -28.27235,7.00964 -5.55034,1.26074 -9.16627,2.81542 -8.03523,3.45483 1.13097,0.63943 -1.42532,2.90994 -5.68082,5.04558 -7.2124,3.6196 -7.2617,3.80468 -0.7272,2.72859 5.14752,-0.84769 4.21631,0.15852 -3.505,3.78741 -6.86032,3.22422 -8.68762,4.99957 -5.25751,5.10811 3.63047,0.11467 3.89492,0.47687 0.85445,1.16981 -2.42173,0.55201 -3.54631,1.78736 -2.49916,2.74525 1.04714,0.9579 2.0461,10.3269 2.21984,20.82003 0.31298,18.90079 0.39229,19.07012 8.52689,18.19102 4.51594,-0.48809 7.37688,-0.12445 6.35761,0.80786 -1.01935,0.9324 -4.12612,1.6953 -6.90401,1.6953 -4.06075,0 -5.05061,3.88349 -5.05061,19.81559 0,11.4255 1.43374,19.8156 3.38608,19.8156 1.86233,0 8.8924,-1.4845 15.62241,-3.2989 z m -11.99848,-5.4787 c 0,-0.5449 3.15453,-1.9452 7.01001,-3.1117 3.85547,-1.1666 7.01,-1.6752 7.01,-1.1302 0,0.5448 -3.15453,1.9452 -7.01,3.1117 -3.85548,1.1665 -7.01001,1.6752 -7.01001,1.1302 z m 20.09533,-7.3207 c 2.37753,-1.3543 5.20574,-1.9631 6.28485,-1.353 1.0792,0.6101 -0.86609,1.7181 -4.32281,2.4623 -4.99528,1.0753 -5.39785,0.8477 -1.96204,-1.1093 z m 18.45963,-0.6432 c 0,-0.5449 4.73176,-2.3741 10.51501,-4.0649 5.78317,-1.6907 10.51493,-2.6282 10.51493,-2.0833 0,0.5449 -4.73176,2.3741 -10.51493,4.0649 -5.78325,1.6908 -10.51501,2.6283 -10.51501,2.0833 z m -35.68578,-3.6317 c 5.68388,-3.8719 31.94923,-14.1203 33.60508,-13.1123 0.71352,0.4344 -7.523,4.2213 -18.30331,8.4152 -10.7803,4.194 -17.66612,6.3076 -15.30177,4.6971 z m 35.97785,-6.1094 c 0.80319,-0.3973 5.40354,-1.7841 10.22294,-3.0817 8.26219,-2.2245 8.37405,-2.1833 1.95881,0.7224 -5.58349,2.529 -16.99172,4.7384 -12.18175,2.3593 z m -42.05997,-3.8015 c 0.80328,-0.3084 4.61497,-1.8689 8.47044,-3.4677 6.48427,-2.689 6.64918,-2.647 2.19962,0.5607 -2.6458,1.9073 -6.45749,3.4678 -8.47044,3.4678 -2.01304,0 -3.00281,-0.2524 -2.19962,-0.5608 z m 63.08991,-2.1432 c 0.80328,-0.3973 5.40354,-1.784 10.22294,-3.0817 8.26219,-2.22459 8.37405,-2.1833 1.95881,0.7224 -5.58341,2.529 -16.99172,4.7385 -12.18175,2.3593 z m -43.28664,-5.46822 c 2.37753,-1.35418 5.20574,-1.96305 6.28485,-1.35299 1.07919,0.61015 -0.86609,1.71821 -4.32282,2.46231 -4.99527,1.0753 -5.39784,0.8477 -1.96203,-1.10932 z m 67.52952,-1.73567 c 2.89162,-1.0565 6.83482,-1.92081 8.76251,-1.92081 1.92778,0 1.13912,0.86431 -1.7525,1.92081 -2.89163,1.0565 -6.83474,1.92089 -8.76243,1.92089 -1.92778,0 -1.13912,-0.86439 1.75242,-1.92089 z m -49.5579,-3.84553 c 4.55105,-2.24432 9.93997,-4.08072 11.97545,-4.08072 4.31015,0 4.10427,0.0989 -9.73494,4.6805 l -10.51502,3.48095 z m 28.52796,-8.04381 c 2.89162,-1.0565 6.83473,-1.92089 8.76251,-1.92089 1.92769,0 1.13912,0.86439 -1.75251,1.92089 -2.89162,1.0565 -6.83473,1.92089 -8.76251,1.92089 -1.92769,0 -1.13912,-0.86439 1.75251,-1.92089 z m 87.62485,1.20279 c 0,-0.42833 2.44783,-1.30981 5.43958,-1.95889 3.11921,-0.67662 4.52609,-0.34451 3.29814,0.7788 -2.05834,1.88289 -8.73772,2.78494 -8.73772,1.18009 z m -71.03452,-5.41179 c 2.37752,-1.35426 5.20574,-1.96305 6.28485,-1.35298 1.07919,0.61015 -0.8661,1.71816 -4.32282,2.46227 -4.99527,1.07537 -5.39784,0.84773 -1.96203,-1.10929 z m 64.0246,-0.53288 c 0,-0.42833 2.44774,-1.30981 5.43949,-1.95889 3.11918,-0.6767 4.52606,-0.34451 3.29811,0.7788 -2.05834,1.8829 -8.7376,2.78494 -8.7376,1.18009 z m -45.56498,-5.94467 c 0,-0.42833 2.44783,-1.3098 5.43959,-1.95889 3.11909,-0.6767 4.52605,-0.34451 3.2981,0.7788 -2.05834,1.8829 -8.73769,2.78495 -8.73769,1.18009 z m -15.97882,-4.06585 c 3.742,-1.69487 8.34235,-3.08161 10.22295,-3.08161 4.45321,0 2.46482,0.91523 -8.26414,3.80396 -8.26219,2.22461 -8.37405,2.18339 -1.95881,-0.72235 z m -78.65604,-0.0905 c 0,-1.35588 21.46074,-7.37131 23.06414,-6.46476 0.76052,0.42995 -4.11779,2.26469 -10.84065,4.0772 -6.72296,1.81243 -12.22349,2.88687 -12.22349,2.38756 z m 118.23512,-3.23707 c 2.37761,-1.35422 5.20582,-1.9631 6.28493,-1.35295 1.0792,0.61011 -0.86609,1.71812 -4.32281,2.46223 -4.99527,1.07537 -5.39793,0.84774 -1.96212,-1.10928 z m 57.01471,-2.58702 c 0,-0.54495 3.15445,-1.9452 7.00992,-3.11178 3.85556,-1.16658 7.01001,-1.67515 7.01001,-1.1302 0,0.54487 -3.15445,1.9452 -7.01001,3.11178 -3.85547,1.1665 -7.00992,1.67515 -7.00992,1.1302 z m -98.1399,-5.09337 c 6.74709,-2.08834 14.63331,-3.81475 17.52493,-3.83651 2.89163,-0.0221 -1.61802,1.72428 -10.02148,3.88004 -19.32997,4.9588 -23.58547,4.93415 -7.50345,-0.0434 z m 80.61488,-0.8513 c 0,-0.54495 3.15454,-1.94529 7.01001,-3.11178 3.85547,-1.16658 7.01001,-1.67515 7.01001,-1.1302 0,0.54487 -3.15454,1.94521 -7.01001,3.11178 -3.85547,1.1665 -7.01001,1.67515 -7.01001,1.1302 z M 497.9267,914.22789 c 2.37752,-1.35427 5.20574,-1.96306 6.28485,-1.35299 1.07919,0.61015 -0.8661,1.71816 -4.32282,2.46227 -4.99527,1.07537 -5.39784,0.84774 -1.96203,-1.10928 z m 71.32659,1.50506 c 0.80328,-0.39731 5.40354,-1.78404 10.22294,-3.08161 8.26219,-2.22461 8.37405,-2.18338 1.95881,0.72235 -5.58341,2.52901 -16.99172,4.73848 -12.18175,2.35926 z m 94.34283,-0.18786 c 0,-0.54487 6.30899,-2.81036 14.02002,-5.03446 7.71094,-2.224 14.02001,-3.59778 14.02001,-3.05286 0,0.54493 -6.30907,2.81043 -14.02001,5.03444 -7.71103,2.22402 -14.02002,3.59783 -14.02002,3.05288 z m 49.06997,-1.07129 c 2.89163,-1.0565 6.83474,-1.92089 8.76251,-1.92089 1.9277,0 1.13913,0.86439 -1.7525,1.92089 -2.89162,1.0565 -6.83473,1.92081 -8.76251,1.92081 -1.92778,0 -1.13912,-0.86431 1.7525,-1.92081 z m -189.26976,-5.9447 c 2.89163,-1.05649 6.83474,-1.92086 8.76243,-1.92086 1.92778,0 1.13912,0.86437 -1.7525,1.92086 -2.89154,1.05653 -6.83474,1.92084 -8.76243,1.92084 -1.92778,0 -1.13912,-0.86431 1.7525,-1.92084 z m 70.09992,1.20282 c 0,-0.42836 2.44774,-1.30984 5.4395,-1.9589 3.11918,-0.67669 4.52609,-0.3445 3.29811,0.77877 -2.05835,1.88293 -8.73761,2.78498 -8.73761,1.18013 z m 143.70479,-1.20282 c 2.89162,-1.05649 6.83473,-1.92086 8.76251,-1.92086 1.92778,0 1.13912,0.86437 -1.7525,1.92086 -2.89163,1.05653 -6.83473,1.92084 -8.76251,1.92084 -1.9277,0 -1.13912,-0.86431 1.7525,-1.92084 z m -283.90462,-0.97195 c 0,-1.35591 21.46073,-7.37125 23.06414,-6.46476 0.76052,0.42996 -4.11779,2.26469 -10.84066,4.07718 -6.72295,1.81247 -12.22348,2.88689 -12.22348,2.38758 z m 199.12753,-0.38167 c 2.53019,-0.57244 5.55323,-0.50203 6.71794,0.15634 1.16471,0.65846 -0.90545,1.1268 -4.60027,1.04076 -4.08319,-0.0951 -4.91367,-0.56463 -2.11767,-1.1972 z m -65.14497,-5.72779 c 3.32769,-1.9697 7.01162,-3.03782 8.18645,-2.3736 1.1749,0.66422 -1.54774,2.27578 -6.05025,3.58127 -7.8262,2.26911 -7.92022,2.21596 -2.1362,-1.20767 z m 47.3425,0.89084 c 2.37761,-1.35424 5.20582,-1.96307 6.28493,-1.35296 1.0792,0.61008 -0.86609,1.71811 -4.32281,2.46224 -4.99528,1.07535 -5.39794,0.84775 -1.96212,-1.10928 z m 95.56955,0.2459 c 2.89163,-1.05649 6.83473,-1.92087 8.76251,-1.92087 1.92778,0 1.13912,0.86438 -1.7525,1.92087 -2.89162,1.05648 -6.83473,1.92086 -8.76251,1.92086 -1.92769,0 -1.13912,-0.86438 1.7525,-1.92086 z m -235.49189,-5.31675 c 2.53019,-0.57243 5.55323,-0.50202 6.71794,0.15635 1.16471,0.65845 -0.90545,1.12679 -4.60035,1.04075 -4.08311,-0.0951 -4.91358,-0.56463 -2.11759,-1.1972 z m 145.15485,-5.73782 c 3.32769,-1.96418 6.80473,-3.1447 7.72684,-2.62338 0.92211,0.5213 -1.80053,2.12835 -6.05033,3.57122 -7.38257,2.50651 -7.45729,2.46429 -1.67651,-0.94784 z m 40.33246,0.90088 c 2.37761,-1.35424 5.20574,-1.96308 6.28493,-1.35298 1.07911,0.61009 -0.86617,1.71812 -4.32281,2.46225 -4.99536,1.07536 -5.39793,0.84775 -1.96212,-1.10927 z m -156.79012,-1.73567 c 2.89163,-1.05649 6.83474,-1.92086 8.76243,-1.92086 1.92778,0 1.13912,0.86437 -1.7525,1.92086 -2.89154,1.05648 -6.83474,1.92086 -8.76243,1.92086 -1.92778,0 -1.13912,-0.86438 1.7525,-1.92086 z m 181.32506,-0.24589 c 2.37762,-1.35424 5.20574,-1.96307 6.28494,-1.35298 1.07919,0.61009 -0.86609,1.71812 -4.32282,2.46225 -4.99535,1.07536 -5.39793,0.84775 -1.96212,-1.10927 z m -91.12985,-5.94468 c 2.37761,-1.35424 5.20574,-1.96307 6.28493,-1.35297 1.07911,0.61008 -0.86618,1.71812 -4.32282,2.46225 -4.99535,1.07535 -5.39793,0.84775 -1.96211,-1.10928 z m 35.04995,-5.94468 c 2.37762,-1.35424 5.20574,-1.96307 6.28494,-1.35297 1.07911,0.61008 -0.86618,1.71811 -4.32282,2.46225 -4.99535,1.07535 -5.39793,0.84775 -1.96212,-1.10928 z m 21.96464,-3.93448 c -4.37969,-1.78119 -4.19098,-1.94272 1.13019,-0.96756 3.51317,0.64383 9.82216,0.23292 14.01994,-0.91316 7.37739,-2.01416 7.40501,-1.98083 0.82869,0.99787 -8.0178,3.63163 -9.076,3.69008 -15.97882,0.88285 z m -73.60496,-1.76431 c 2.89162,-1.05648 6.83485,-1.92086 8.76255,-1.92086 1.92777,0 1.13912,0.86438 -1.75251,1.92086 -2.89166,1.05649 -6.83476,1.92087 -8.76254,1.92087 -1.92769,0 -1.13912,-0.86438 1.7525,-1.92087 z m -38.26281,-2.70393 c 0.80319,-0.39728 5.40354,-1.78404 10.22286,-3.08165 8.26227,-2.22459 8.37405,-2.18334 1.95889,0.72237 -5.58349,2.52898 -16.99172,4.73846 -12.18175,2.35928 z M 772.251,866.13758 c 0,-0.42833 2.44782,-1.3098 5.43958,-1.95887 3.11909,-0.67668 4.52606,-0.34449 3.29811,0.77878 -2.05834,1.8829 -8.73769,2.78498 -8.73769,1.18009 z m -82.36735,-6.09525 c 5.78325,-2.68004 12.00435,-4.90488 13.82468,-4.94407 1.82025,-0.0393 -2.03496,2.158 -8.56726,4.88264 -15.27687,6.37208 -18.96828,6.4152 -5.25742,0.0615 z m 21.84775,-7.24278 c 2.37762,-1.35424 5.20574,-1.96307 6.28494,-1.35297 1.07911,0.61008 -0.86618,1.71811 -4.32282,2.46225 -4.99536,1.07535 -5.39793,0.84775 -1.96212,-1.10928 z m -79.38817,-2.29639 c 0.80328,-0.30839 4.61497,-1.86886 8.47044,-3.46773 6.48427,-2.689 6.64926,-2.64693 2.19962,0.56073 -2.6458,1.90725 -6.4574,3.46772 -8.47044,3.46772 -2.01295,0 -3.00281,-0.25233 -2.19962,-0.56072 z m 85.37398,-8.24697 c 3.742,-1.6949 8.34235,-3.08166 10.22295,-3.08166 4.45321,0 2.46482,0.91528 -8.26406,3.80401 -8.26227,2.2246 -8.37413,2.18335 -1.95889,-0.72235 z m -15.56613,-5.06322 c 2.89163,-1.05649 6.83473,-1.92086 8.76251,-1.92086 1.92778,0 1.13912,0.86437 -1.7525,1.92086 -2.89162,1.05649 -6.83473,1.92086 -8.76251,1.92086 -1.92769,0 -1.13912,-0.86437 1.7525,-1.92086 z m 52.57498,-11.88936 c 2.89163,-1.05648 6.83473,-1.92086 8.76243,-1.92086 1.92778,0 1.13912,0.86438 -1.7525,1.92086 -2.89163,1.05649 -6.83474,1.92087 -8.76243,1.92087 -1.92778,0 -1.13912,-0.86438 1.7525,-1.92087 z M 431.15574,975.5307 c -1.11889,-1.5808 -1.94945,-1.1113 -2.11759,1.1971 -0.15215,2.0889 0.6762,3.2593 1.84091,2.6008 1.16462,-0.6584 1.28915,-2.3675 0.27651,-3.7979 z m -102.05333,-6.3841 c 1.16565,-2.6256 1.27083,-11.31973 0.23378,-19.32019 -3.56679,-27.51578 -3.9664,-41.2923 -1.21287,-41.81424 5.25791,-0.99668 -5.63852,-21.01695 -14.31969,-26.30993 -4.79687,-2.92468 -14.41023,-6.65648 -21.36302,-8.29289 -6.95282,-1.63641 -13.50026,-3.7458 -14.5499,-4.68755 -2.93505,-2.63336 -101.19855,-23.01841 -119.01391,-24.68977 -8.67486,-0.81385 -13.50761,-1.92345 -10.73941,-2.4658 7.39698,-1.44921 -23.70838,-8.094 -38.50577,-8.22567 -16.42574,-0.14624 -20.88353,2.79376 -20.71438,13.66112 l 0.1402,9.0161 5.20576,-5.4241 c 5.93767,-6.18672 15.52113,-8.07757 35.15514,-6.93625 12.22415,0.71059 11.76641,0.83115 -4.28619,1.12867 -11.80875,0.21887 -19.60761,1.44726 -22.74128,3.58193 -7.14964,4.8704 -12.20226,18.631 -9.72097,26.47456 l 2.19406,6.93546 0.46139,-7.32035 c 0.60023,-9.52285 12.41985,-17.15664 28.50136,-18.40782 l 12.26748,-0.95444 -13.2159,2.15384 c -14.67026,2.39085 -19.7252,6.37937 -24.80867,19.57487 -4.833,12.54531 -3.38207,43.95609 2.12171,45.93215 8.80413,3.16096 11.47827,1.43051 10.97043,-7.09875 -0.56991,-9.57199 -3.57225,-13.75698 -8.60721,-11.99771 -1.79453,0.62702 -3.26281,-1.28671 -3.26281,-4.25272 0,-6.53682 16.5161,-21.57152 32.5089,-29.59305 9.79861,-4.91468 13.66742,-5.67063 23.77095,-4.64474 10.53269,1.06948 10.8556,1.2585 2.53881,1.48618 -7.46304,0.20429 -9.06648,1.01259 -7.39645,3.72857 1.17274,1.90725 4.57921,4.58236 7.56991,5.94468 3.65161,1.66339 3.99839,2.47696 1.05584,2.47696 -2.57255,0 -3.29493,1.02272 -1.74958,2.47694 1.91905,1.8059 1.08623,1.76864 -3.07409,-0.13752 -4.32131,-1.97991 -7.462,-2.08323 -12.94031,-0.42568 -3.97872,1.20384 -7.23402,2.92468 -7.23402,3.82411 0,0.89944 -3.96086,4.93508 -8.80188,8.9681 -4.84104,4.03305 -8.69972,9.73061 -8.57487,12.66128 0.12477,2.93066 -0.73816,7.55776 -1.91783,10.28235 -2.66576,6.157 6.82717,14.43946 11.7317,10.23574 2.35077,-2.01487 3.56217,-1.61361 5.08818,1.68552 3.10851,6.72031 9.48468,2.62395 9.48468,-6.09347 0,-7.51952 -4.529,-10.4669 -8.19369,-5.33239 -0.97232,1.36233 -1.89238,-0.43879 -2.04457,-4.00245 -0.22152,-5.18395 6.61035,-13.84269 18.60329,-23.57831 0.22642,-0.18389 5.14036,-0.85798 10.91963,-1.49802 5.77928,-0.64004 8.70368,-0.66976 6.49865,-0.066 -5.76004,1.57699 -1.50698,8.80347 5.29419,8.9955 3.17336,0.0896 0.93152,1.35148 -5.02998,2.83123 -15.97549,3.96544 -19.40127,7.38757 -21.40809,21.38513 -1.53252,10.68948 -0.88438,12.90194 4.09629,13.98241 3.25428,0.70603 7.17307,0.84475 8.7084,0.3083 1.53536,-0.53645 4.74064,0.35234 7.12289,1.97513 2.3822,1.62278 6.77897,2.95053 9.77059,2.95053 4.28732,0 3.82525,-0.97133 -2.18168,-4.58624 -12.35722,-7.43647 -8.44224,-19.50937 7.50441,-23.14179 6.84193,-1.55853 6.94021,-1.75761 0.92311,-1.86981 -8.98689,-0.16763 -19.48704,5.43703 -19.83018,10.58471 -0.16824,2.52365 -1.02171,3.09224 -2.17678,1.45024 -1.60417,-2.28054 -2.37148,-2.28054 -4.92712,0 -4.53202,4.04413 -4.07279,-2.12099 0.73928,-9.92518 3.74771,-6.0779 15.63508,-11.68217 19.79316,-9.33139 1.12006,0.63323 0.30915,1.15133 -1.80233,1.15133 -5.72751,0 -14.85449,5.77805 -14.85449,9.40393 0,2.63092 1.35391,2.46695 7.88624,-0.95509 14.11017,-7.39179 34.62452,-6.62081 48.25051,1.81345 14.16604,8.76854 16.27741,15.92556 7.25005,24.57562 -8.72478,8.3601 -9.13823,10.73797 -1.86705,10.73797 4.96213,0 14.65744,-10.84108 12.84799,-14.36623 -0.41955,-0.81747 0.81442,-1.48619 2.74216,-1.48619 4.81576,0 4.49148,1.01867 -3.18309,9.99904 -7.80769,9.1361 -4.80689,11.39063 7.73654,5.81249 7.1947,-3.19958 8.88235,-5.67308 8.88235,-13.01826 0,-4.98753 0.92006,-9.58839 2.04461,-10.22413 1.12451,-0.63573 2.04457,3.28306 2.04457,8.70845 0,7.28287 -1.9268,11.0337 -7.36242,14.33223 -4.04932,2.45726 -6.77978,4.79713 -6.06767,5.19979 0.71211,0.40258 13.4291,3.37361 28.26001,6.60231 23.3514,5.0835 27.53534,5.4819 31.21899,2.9726 3.72171,-2.5353 5.05248,-18.12882 3.10041,-36.32919 -0.29232,-2.72468 0.53707,-9.5025 1.84289,-15.06185 2.19784,-9.35702 1.47799,-10.82903 -9.69071,-19.8156 -6.63569,-5.33925 -16.16949,-11.01568 -21.18619,-12.61432 -8.29324,-2.64276 -9.85345,-2.55282 -17.18664,0.99078 -8.03801,3.88417 -8.04772,3.88396 -2.86828,-0.0658 2.85839,-2.17972 6.70303,-4.57445 8.54357,-5.32163 6.1683,-2.50402 23.82499,5.22493 35.7057,15.62962 12.49331,10.94122 14.67257,19.07102 8.00899,29.87784 -2.60275,4.22111 -2.64691,7.27713 -0.14336,9.92183 6.68378,7.0605 4.23032,28.05182 -3.93429,33.66112 -4.37413,3.0051 -3.96001,3.2627 9.59142,5.9645 14.9657,2.9837 15.41017,2.9245 17.7583,-2.3646 z m -54.56076,-8.1758 c 0,-0.5833 2.52083,-3.23565 5.60183,-5.89402 4.16242,-3.59146 5.07523,-7.5196 3.55252,-15.28733 -1.12714,-5.74967 -2.29402,-11.7915 -2.5931,-13.42627 -0.29898,-1.63482 0.62981,-7.4768 2.06423,-12.98218 2.3515,-9.02532 1.71089,-10.61251 -6.51375,-16.1385 -5.01695,-3.37081 -9.12172,-6.79142 -9.12172,-7.60134 0,-0.80993 4.89249,1.9939 10.87218,6.23071 10.00932,7.09198 10.67713,8.48963 8.4148,17.61114 -2.65347,10.69845 -2.65094,10.8886 0.34769,26.01556 1.44745,7.302 0.422,11.90422 -3.64253,16.34791 -5.16047,5.64182 -8.98211,7.82202 -8.98211,5.12432 z m -21.02997,-5.53251 c 0,-0.84152 2.35974,-4.10988 5.24383,-7.26297 5.57416,-6.09411 6.81914,-14.17133 4.0492,-26.27066 -1.01823,-4.44786 -0.23517,-7.43086 1.95103,-7.43086 2.14716,0 2.82769,2.33061 1.65141,5.65566 -1.10043,3.11068 -0.29582,6.61963 1.78776,7.7976 2.71473,1.53481 2.60698,4.79484 -0.38018,11.50164 -3.66066,8.219 -14.30305,20.1311 -14.30305,16.00959 z m -20.88385,-32.04753 c -3.56013,-10.57587 -3.53927,-11.86877 0.13494,-8.35934 2.03259,1.94155 2.98384,5.06242 2.1139,6.93546 -0.86993,1.87303 -1.88187,2.51379 -2.24873,1.42388 z m 15.16948,-7.49231 c 0.25131,-4.91733 1.63981,-8.53438 3.08562,-8.038 3.57748,1.22829 3.23028,10.93464 -0.51053,14.27286 -1.93651,1.72811 -2.86688,-0.52446 -2.57509,-6.23486 z m 13.40766,-8.36013 c 0.0715,-3.26957 0.85697,-4.36724 1.74563,-2.43924 0.88865,1.928 0.83023,4.60309 -0.13004,5.94469 -0.96012,1.3416 -1.6872,-0.23589 -1.61577,-3.50545 z m -42.74324,0.99078 c -3.15902,-1.15418 -3.59133,-1.93299 -1.08312,-1.95122 2.29592,-0.0158 5.14919,0.86136 6.34061,1.95122 2.68938,2.46018 1.47603,2.46018 -5.25749,0 z m -31.54496,-5.94467 c -3.50499,-1.28059 -3.79706,-1.93099 -0.87625,-1.95122 6.60061,-0.0458 5.25942,-3.57314 -1.75249,-4.60908 -4.89593,-0.72334 -4.63656,-0.95261 1.2851,-1.13608 7.39333,-0.22907 44.66188,7.64551 42.35548,8.94944 -0.66724,0.37722 -7.81897,-0.78112 -15.89269,-2.57411 -14.42004,-3.20234 -24.61976,-2.21883 -14.50266,1.39844 4.51177,1.61315 4.49909,1.84347 -0.10165,1.84347 -2.89161,0 -7.62336,-0.86438 -10.51498,-1.92086 z m 50.84725,0.0226 c -1.22794,-1.12327 0.1791,-1.45548 3.29812,-0.77877 6.07213,1.31732 7.18311,2.73764 2.14142,2.73764 -1.81398,0 -4.26179,-0.8815 -5.43954,-1.95887 z m -25.532,-10.11358 c -6.27324,-3.16887 -10.04507,-5.76158 -8.38188,-5.76158 1.66322,0 6.75991,1.83181 11.32601,4.0707 5.85478,2.87076 10.91841,3.69944 17.17783,2.81128 9.70292,-1.37679 9.2091,-0.61352 -1.66546,2.57431 -5.77491,1.69289 -9.11446,1.02437 -18.4565,-3.69471 z m 7.23119,-6.93363 c -4.26852,-2.62496 -6.48455,-4.77263 -4.92445,-4.77263 1.56008,0 5.64003,1.75138 9.06651,3.89194 5.13408,3.2073 9.0833,3.68106 22.44946,2.69317 8.9207,-0.65929 15.43081,-0.74153 14.46694,-0.18269 -0.96387,0.55881 -8.85011,1.49457 -17.52497,2.07943 -13.52301,0.91173 -16.87936,0.38273 -23.53349,-3.70922 z m -40.39182,-0.22927 c 4.35991,-0.47397 10.6689,-0.45598 14.01999,0.04 3.35109,0.49597 -0.21625,0.88378 -7.92711,0.86179 -7.71099,-0.022 -10.45277,-0.42781 -6.09288,-0.90177 z m 9.59788,-6.67165 -10.51499,-1.65954 11.15044,0.54004 c 8.75495,0.42402 11.56834,-0.33976 13.09586,-3.5553 3.1287,-6.58619 2.75335,-6.8106 -12.85506,-7.68572 -8.19293,-0.45934 -5.97886,-0.60055 4.92014,-0.31378 10.89899,0.28679 22.72834,1.51772 26.28746,2.73541 5.55107,1.89922 5.14772,2.04539 -2.83719,1.02805 -7.377,-0.93987 -9.78735,-0.33251 -11.61745,2.9274 -1.27007,2.26231 -1.32569,5.01299 -0.12373,6.11259 2.49777,2.28488 -2.44108,2.24844 -17.50559,-0.12919 z m 46.89676,-3.07861 c -6.07661,-3.65683 -6.62258,-4.58357 -2.1256,-3.60797 3.32821,0.72204 6.05127,2.04709 6.05127,2.94454 0,0.89745 3.54881,1.92473 7.88624,2.28284 6.39122,0.52766 6.79418,0.90229 2.1256,1.97625 -3.73863,0.85999 -8.63073,-0.40208 -13.93751,-3.59566 z m 11.40645,-7.35236 c -2.14089,-1.45841 -10.37381,-3.74947 -18.29538,-5.09126 -7.92157,-1.34178 -13.71641,-2.82767 -12.87745,-3.30198 2.49552,-1.41086 24.797,3.47047 33.80347,7.39889 4.59739,2.00528 6.76208,3.64597 4.81039,3.64597 -1.95164,0 -5.30014,-1.19324 -7.44103,-2.65162 z m -93.35317,-11.21932 c -16.93011,-1.3128 -17.04907,-1.36563 -3.505,-1.55605 7.71099,-0.1084 20.32897,0.54066 28.03997,1.44236 11.48135,1.34263 12.116,1.62439 3.505,1.55607 -5.78326,-0.046 -18.40124,-0.69495 -28.03997,-1.44238 z m 50.16525,0.62794 c 2.53015,-0.57244 5.55321,-0.50203 6.71792,0.15634 1.16468,0.65845 -0.90548,1.12679 -4.60031,1.04075 -4.08314,-0.0951 -4.91365,-0.56462 -2.11761,-1.19719 z m 15.28735,79.62525 c 0.62827,-2.17973 2.49402,-4.52053 4.14613,-5.20191 4.44451,-1.83292 -0.93152,-9.65985 -6.63499,-9.65985 -2.72033,0 -4.08865,-1.21197 -3.06725,-2.71677 2.4864,-3.6632 -7.79301,-9.17256 -17.1143,-9.17256 -7.41815,0 -7.42821,0.0451 -0.62589,2.77576 3.8025,1.52665 9.9313,5.99474 13.61953,9.929 5.7184,6.09993 6.04465,7.85192 2.21534,11.89712 -2.46979,2.60899 -3.35085,5.78622 -1.95789,7.06042 1.65555,1.51441 -0.0428,1.40832 -4.90335,-0.30644 -6.90102,-2.43448 -7.00522,-2.80144 -1.44844,-5.10051 8.51097,-3.52141 8.65237,-7.71425 0.52284,-15.50403 -11.43929,-10.96111 -34.43186,-7.71979 -34.43186,4.85404 0,5.40872 14.6129,15.06937 29.79247,19.6959 8.09994,2.46874 17.92971,-1.75734 19.88766,-8.55017 z m -39.14252,-9.86908 c -6.02962,-10.32898 2.83007,-15.01306 14.12821,-7.46957 5.64217,3.76715 5.94812,5.59892 1.82018,10.89859 -4.34135,5.57371 -11.60458,4.01204 -15.94839,-3.42902 z m 13.94371,-0.65103 c -0.0883,-5.50933 -6.07735,-9.59431 -10.44562,-7.12464 -2.65083,1.4986 -2.69643,3.75075 -0.15247,7.5335 3.79237,5.63925 10.69073,5.37311 10.59812,-0.40886 z m -8.12465,-1.69946 c -1.28517,-0.72665 -2.33667,-2.2425 -2.33667,-3.36871 0,-1.24163 1.63252,-1.12467 4.14756,0.29717 2.2812,1.28975 3.33269,2.80561 2.33668,3.36871 -0.99601,0.56314 -2.86243,0.42935 -4.14757,-0.29717 z M 151.13094,904.7752 c 12.75947,-7.57233 15.47907,-14.08008 5.88412,-14.08008 -4.91913,0 -22.67322,15.26486 -22.67322,19.49427 0,3.72687 3.03609,2.7478 16.7891,-5.41419 z m 286.56764,-2.03097 c -1.09535,-1.00199 0.50143,-3.23125 3.54852,-4.9539 3.04701,-1.72265 4.16556,-3.13209 2.48565,-3.13209 -4.57944,0 -11.46636,4.40358 -11.46636,7.33177 0,1.41681 1.67039,2.57603 3.7119,2.57603 2.04151,0 2.81563,-0.81982 1.72029,-1.82181 z m -321.06076,-4.61827 c 2.75672,-2.45217 7.85071,-7.73921 11.31995,-11.74898 3.46924,-4.00974 9.4794,-7.85958 13.35589,-8.55514 7.25829,-1.3024 9.66583,-7.77535 3.67099,-9.86999 -4.80335,-1.67832 -28.97302,12.55214 -36.45111,21.4615 -9.24116,11.00985 -2.55679,18.19598 8.10428,8.71261 z m 328.87795,-8.26936 c 11.02648,-2.64088 43.70681,-11.20631 72.62306,-19.03426 28.91616,-7.82796 67.55876,-18.28093 85.87238,-23.22883 159.6075,-43.12212 177.03698,-48.27396 170.44723,-50.38091 -3.60531,-1.15273 -30.41859,-6.82144 -59.58491,-12.59712 -29.16641,-5.7757 -73.53411,-14.65447 -98.5948,-19.73059 -25.06081,-5.07614 -71.286,-14.17682 -102.72274,-20.22373 l -57.15774,-10.99437 -42.73463,10.51279 c -23.50403,5.78203 -54.56396,13.57746 -69.02207,17.32317 -14.4581,3.74572 -42.84856,10.79789 -63.08991,15.67149 -20.24134,4.87359 -41.53419,10.05533 -47.31744,11.51496 -5.78324,1.45962 -33.38507,8.14702 -61.33742,14.86087 -27.95234,6.71385 -57.11113,13.83191 -64.7973,15.81792 l -13.97487,3.61089 8.71738,2.12934 c 51.83443,12.66134 89.02226,19.71402 94.77354,17.97387 8.10761,-2.45309 13.77767,-2.47093 6.92772,-0.0218 -2.83578,1.01391 -4.15983,2.40664 -2.94233,3.09496 1.21749,0.68833 37.44852,8.77462 80.51338,17.96955 64.58536,13.78985 79.70987,16.36613 86.35088,14.70874 11.93626,-2.97896 17.859,-2.30095 7.72131,0.88391 l -8.76251,2.75282 10.51501,2.34601 c 9.59562,2.14086 44.21717,9.35364 46.54684,9.69716 0.54002,0.0796 10.00347,-2.01594 21.02994,-4.65684 z m -41.28933,-7.08771 c 2.89162,-1.0565 6.83473,-1.92087 8.76251,-1.92087 1.92778,0 1.13912,0.86437 -1.7525,1.92087 -2.89163,1.05648 -6.83473,1.92085 -8.76251,1.92085 -1.9277,0 -1.13912,-0.86437 1.7525,-1.92085 z m 19.27752,-3.96312 c 9.63549,-2.34086 15.16951,-2.34086 8.76243,0 -2.89154,1.05648 -7.6233,1.87185 -10.51493,1.81193 -3.46667,-0.0719 -2.86969,-0.68903 1.7525,-1.81193 z m -36.51039,-2.70394 c 0.80319,-0.39729 5.40354,-1.78404 10.22295,-3.08165 8.26218,-2.22459 8.37404,-2.18334 1.9588,0.72236 -5.58349,2.52899 -16.99171,4.73847 -12.18175,2.35929 z m -40.39318,-4.16851 c 3.742,-1.60013 9.95811,-2.90277 13.81366,-2.89478 4.85315,0.01 3.38133,0.90519 -4.7837,2.90932 -14.96234,3.67255 -17.6424,3.66825 -9.02996,-0.0138 z m 131.23097,-3.88669 c 0,-0.54493 3.15454,-1.94524 7.01001,-3.11179 3.85547,-1.16654 7.01001,-1.67515 7.01001,-1.13022 0,0.54494 -3.15454,1.94524 -7.01001,3.11178 -3.85547,1.16655 -7.01001,1.67516 -7.01001,1.13023 z m -165.21572,-7.1891 c 6.4826,-2.23436 12.54385,-3.63433 13.46946,-3.11103 1.76518,0.99796 -17.60766,7.19373 -22.45318,7.18094 -1.54153,-0.004 2.50113,-1.83552 8.98372,-4.06991 z m 123.15575,0.11414 c 2.89163,-1.05649 6.83474,-1.92086 8.76251,-1.92086 1.92778,0 1.13913,0.86437 -1.7525,1.92086 -2.89162,1.05649 -6.83473,1.92086 -8.76251,1.92086 -1.92769,0 -1.13912,-0.86437 1.7525,-1.92086 z m -23.01212,-5.73454 c 1.08311,-0.99079 7.06229,-2.80521 13.28696,-4.03199 13.12196,-2.58609 9.15242,-0.0396 -5.39436,3.46054 -5.42412,1.30511 -8.97579,1.56228 -7.8926,0.57145 z m -51.24995,-5.52688 c 2.53019,-0.57243 5.55323,-0.50202 6.71793,0.15635 1.16471,0.65845 -0.90544,1.12679 -4.60026,1.04075 -4.08319,-0.0951 -4.91367,-0.56463 -2.11767,-1.1972 z m 147.867,0.57485 c 0,-0.42834 2.44782,-1.30981 5.43958,-1.95887 3.11918,-0.67668 4.52606,-0.34449 3.29811,0.77878 -2.05835,1.88289 -8.73769,2.78498 -8.73769,1.18009 z m -241.84466,-3.18435 c 2.89162,-1.05648 6.83474,-1.92086 8.76249,-1.92086 1.92775,0 1.13913,0.86438 -1.7525,1.92086 -2.89162,1.05649 -6.83474,1.92087 -8.76248,1.92087 -1.92776,0 -1.13913,-0.86438 1.75249,-1.92087 z m 34.39277,-7.29829 c 2.53015,-0.57244 5.5532,-0.50203 6.71791,0.15634 1.16468,0.65845 -0.90547,1.12679 -4.6003,1.04075 -4.08315,-0.0951 -4.91365,-0.56462 -2.11761,-1.1972 z m 168.89692,-2.6095 c 6.74718,-2.08834 13.84474,-3.79701 15.77252,-3.79701 1.9277,0 -2.01541,1.70867 -8.76251,3.79701 -6.74709,2.08834 -13.84474,3.797 -15.77243,3.797 -1.92778,0 2.01533,-1.70866 8.76242,-3.797 z m -242.31848,-1.06834 c 6.48649,-1.59212 12.79548,-2.86318 14.01999,-2.82455 4.56017,0.14386 -15.50502,5.73371 -20.55614,5.72666 -2.89161,-0.004 0.0497,-1.30999 6.53615,-2.90211 z m 305.40839,-0.91322 c 6.74718,-2.08834 13.84474,-3.79701 15.77252,-3.79701 1.92778,0 -2.01541,1.70867 -8.76251,3.79701 -6.74709,2.08835 -13.84474,3.797 -15.77243,3.797 -1.92778,0 2.01533,-1.70865 8.76242,-3.797 z m -271.41078,-6.76287 c 17.68709,-4.35473 28.91878,-5.41809 13.79367,-1.3059 -7.71099,2.09645 -16.38585,3.84296 -19.27748,3.88114 -2.89161,0.0383 -0.42389,-1.12069 5.48381,-2.57524 z m 92.65607,-1.16337 c 6.74709,-2.08834 13.84474,-3.79701 15.77243,-3.79701 1.92778,0 -2.01533,1.70867 -8.76242,3.79701 -6.74718,2.08835 -13.84476,3.79701 -15.77251,3.79701 -1.92775,0 2.01538,-1.70866 8.7625,-3.79701 z m -207.2827,-1.88349 c 4.55099,-2.23361 9.67705,-4.06113 11.39123,-4.06113 6.1274,0 2.93464,1.92968 -8.27452,5.00102 l -11.39123,3.12125 z m 31.6676,-8.20563 c 8.47392,-2.12551 16.03129,-3.51171 16.79412,-3.08042 1.51524,0.85665 -25.49405,7.31202 -29.64347,7.08495 -1.4068,-0.0769 4.37539,-1.87901 12.84935,-4.00453 z m 205.40755,2.16294 c 1.1914,-1.08985 3.74344,-1.98156 5.67122,-1.98156 1.92769,0 2.53019,0.89171 1.33879,1.98156 -1.1914,1.08987 -3.74344,1.98156 -5.67122,1.98156 -1.92777,0 -2.53019,-0.89169 -1.33879,-1.98156 z m 84.93766,-2.22744 c 2.37761,-1.35424 5.20583,-1.96307 6.28494,-1.35298 1.07919,0.61009 -0.8661,1.71811 -4.32282,2.46225 -4.99527,1.07535 -5.39784,0.84775 -1.96212,-1.10927 z m 140.19987,0 c 2.37761,-1.35424 5.20574,-1.96307 6.28494,-1.35298 1.07911,0.61009 -0.8661,1.71811 -4.32282,2.46225 -4.99536,1.07535 -5.39793,0.84775 -1.96212,-1.10927 z m -293.48494,-1.73567 c 2.89163,-1.0565 6.83474,-1.92087 8.76249,-1.92087 1.92775,0 1.13912,0.86437 -1.75249,1.92087 -2.89163,1.05649 -6.83475,1.92086 -8.76249,1.92086 -1.92775,0 -1.13913,-0.86437 1.75249,-1.92086 z m 308.43965,-1.98156 c 2.89162,-1.0565 6.83473,-1.92087 8.76243,-1.92087 1.92777,0 1.13912,0.86437 -1.75251,1.92087 -2.89162,1.05649 -6.83473,1.92086 -8.76242,1.92086 -1.92778,0 -1.13912,-0.86437 1.7525,-1.92086 z m -287.40967,-3.23286 c 0,-1.34034 25.01619,-7.0634 26.704,-6.10919 0.77616,0.43884 -4.9146,2.20275 -12.64634,3.91979 -7.73171,1.71704 -14.05766,2.70227 -14.05766,2.1894 z m 233.16223,-0.53618 c 1.88366,-1.04237 8.15669,-2.52958 13.93994,-3.30495 13.56347,-1.81849 10.51697,-0.1294 -5.17752,2.87055 -6.70306,1.28125 -10.64626,1.47673 -8.76242,0.4344 z m -54.40748,-1.04542 c 0,-0.54493 3.15446,-1.94524 7.01001,-3.11178 3.85547,-1.16654 7.00993,-1.67515 7.00993,-1.13022 0,0.54492 -3.15446,1.94523 -7.00993,3.11178 -3.85555,1.16654 -7.01001,1.67515 -7.01001,1.13022 z m 126.17986,0.0725 c 0,-0.42833 2.44782,-1.30981 5.43958,-1.95887 3.11909,-0.67669 4.52606,-0.34449 3.29811,0.77877 -2.05835,1.8829 -8.73769,2.78498 -8.73769,1.1801 z m 41.12527,-1.44868 c 2.37753,-1.35424 5.20574,-1.96307 6.28494,-1.35297 1.07911,0.61008 -0.86618,1.71811 -4.32282,2.46225 -4.99536,1.07535 -5.39793,0.84775 -1.96212,-1.10928 z m -248.57721,-1.10771 c 2.53019,-0.57244 5.55323,-0.50203 6.71794,0.15634 1.16462,0.65845 -0.90554,1.12679 -4.60035,1.04076 -4.08311,-0.0951 -4.91359,-0.56465 -2.11759,-1.1972 z m 16.42967,-2.6095 c 9.63558,-2.34085 15.16951,-2.34085 8.76251,0 -2.89162,1.05649 -7.62338,1.87186 -10.51501,1.81194 -3.46667,-0.0719 -2.86969,-0.68903 1.7525,-1.81194 z m -213.62946,-1.75885 c 1.83136,-0.96736 7.27287,-2.3421 12.09224,-3.05499 l 8.76248,-1.29616 -8.76248,2.98479 c -9.76566,3.32648 -17.44598,4.19434 -12.09224,1.36636 z m 134.76704,-0.22271 c 2.89162,-1.05648 6.83473,-1.92086 8.76251,-1.92086 1.92777,0 1.13912,0.86438 -1.75251,1.92086 -2.89162,1.05649 -6.83473,1.92087 -8.76251,1.92087 -1.92769,0 -1.13912,-0.86438 1.75251,-1.92087 z m 26.08114,-6.82613 c 3.74199,-1.69491 8.34234,-3.08167 10.22294,-3.08167 4.45322,0 2.46483,0.91529 -8.26413,3.80402 -8.26219,2.2246 -8.37405,2.18335 -1.95881,-0.72235 z m 114.11869,0.88145 c 2.89162,-1.05648 7.62339,-1.87185 10.51501,-1.81194 3.46659,0.0718 2.8697,0.68904 -1.7525,1.81194 -9.63557,2.34086 -15.16951,2.34086 -8.76251,0 z m 59.5849,0 c 2.89163,-1.05648 6.83474,-1.92086 8.76252,-1.92086 1.92777,0 1.13912,0.86438 -1.75251,1.92086 -2.89162,1.05649 -6.83473,1.92087 -8.76251,1.92087 -1.92769,0 -1.13912,-0.86438 1.7525,-1.92087 z m -283.90459,-3.87206 c 0,-1.94954 13.5759,-4.96575 16.05144,-3.56622 0.82672,0.46742 -2.44662,1.86727 -7.27413,3.1108 -4.82753,1.24352 -8.77731,1.44845 -8.77731,0.45542 z m 182.25972,-2.07262 c 2.89163,-1.05648 7.62339,-1.87185 10.51502,-1.81193 3.46666,0.0717 2.86969,0.68903 -1.75251,1.81193 -9.63557,2.34086 -15.16951,2.34086 -8.76251,0 z m 175.24983,0 c 0,-1.08985 1.67031,-1.98156 3.71182,-1.98156 2.04159,0 2.73709,0.89171 1.54569,1.98156 -1.1914,1.08987 -2.86179,1.98156 -3.7119,1.98156 -0.85012,0 -1.54561,-0.89169 -1.54561,-1.98156 z m 13.36278,-3.33517 c 2.53019,-0.57244 5.55323,-0.50203 6.71794,0.15634 1.16462,0.65845 -0.90545,1.12679 -4.60035,1.04075 -4.08311,-0.0951 -4.91359,-0.56464 -2.11759,-1.1972 z M 349.69271,776.6924 c 3.74202,-1.60013 8.38088,-2.90933 10.30866,-2.90933 1.92769,0 0.44329,1.3092 -3.29871,2.90933 -3.74199,1.60013 -8.38086,2.90931 -10.30861,2.90931 -1.92775,0 -0.44334,-1.30918 3.29866,-2.90931 z m 78.41152,1.68173 c 2.53019,-0.57242 5.55323,-0.50203 6.71794,0.15635 1.16471,0.65844 -0.90545,1.12678 -4.60027,1.04074 -4.08319,-0.0951 -4.91367,-0.56464 -2.11767,-1.19719 z m 18.18218,-3.38827 c 0,-0.42834 2.44782,-1.30981 5.43958,-1.95887 3.11909,-0.67668 4.52606,-0.34449 3.29811,0.77877 -2.05835,1.8829 -8.73769,2.78499 -8.73769,1.1801 z m -77.10993,-3.18435 c 2.89163,-1.05648 6.83482,-1.92086 8.76251,-1.92086 1.92778,0 1.13912,0.86438 -1.7525,1.92086 -2.89162,1.05649 -6.83473,1.92087 -8.76251,1.92087 -1.92769,0 -1.13912,-0.86438 1.7525,-1.92087 z m 14.02002,-2.46922 c 2.83238,-1.58382 35.04996,-9.27637 35.04996,-8.36882 0,0.45567 -4.33744,2.07596 -9.63872,3.60066 -10.49691,3.019 -28.23546,6.34749 -25.41124,4.76816 z m 133.18982,-1.4939 c 2.89163,-1.05648 7.62339,-1.92086 10.51502,-1.92086 4.67328,0 4.67328,0.21341 0,1.92086 -2.89163,1.05649 -7.62339,1.92087 -10.51502,1.92087 -4.67328,0 -4.67328,-0.21342 0,-1.92087 z m 40.30747,0 c 3.85547,-0.93666 9.37581,-1.70301 12.26743,-1.70301 3.31392,0 2.66603,0.62956 -1.7525,1.70301 -3.85547,0.93667 -9.37581,1.70302 -12.26743,1.70302 -3.31392,0 -2.66603,-0.62957 1.7525,-1.70302 z m -47.0254,-12.61167 c 0.80327,-0.3973 5.40354,-1.78406 10.22294,-3.08166 8.26218,-2.2246 8.37405,-2.18335 1.9588,0.72236 -5.5834,2.52898 -16.99171,4.73846 -12.18174,2.3593 z m -59.87698,-5.17964 c 0,-1.62874 17.37159,-4.753 19.55727,-3.51734 0.66285,0.37473 -3.46641,1.67822 -9.17605,2.89664 -5.70964,1.21844 -10.38122,1.49774 -10.38122,0.6207 z m -352.2448,81.91627 c 4.65705,-1.01033 4.89227,-1.60548 1.16292,-2.94199 -6.9089,-2.47598 -9.93263,-2.09966 -9.93263,1.23619 0,3.35557 0.61432,3.47508 8.76971,1.7058 z"
         style="fill:#000006;fill-opacity:1" />
    </g>
  </g>
</svg>
